<?xml version="1.0" encoding="UTF-8" standalone="no"?>
<!DOCTYPE svg PUBLIC "-//W3C//DTD SVG 1.1//EN" "http://www.w3.org/Graphics/SVG/1.1/DTD/svg11.dtd">
<svg width="100%" height="100%" viewBox="0 0 2046 2076" version="1.1" xmlns="http://www.w3.org/2000/svg" xmlns:xlink="http://www.w3.org/1999/xlink" xml:space="preserve" xmlns:serif="http://www.serif.com/" style="fill-rule:evenodd;clip-rule:evenodd;stroke-linejoin:round;stroke-miterlimit:2;">
    <g transform="matrix(2.24902,0,0,2.24902,-1904.15,-816.55)">
        <path id="shape" d="M981.624,1078.48C948.057,1023.02 928.73,957.991 928.73,888.486C928.73,685.554 1093.49,520.798 1296.42,520.798C1499.35,520.798 1664.11,685.554 1664.11,888.486C1664.11,957.991 1644.78,1023.02 1611.21,1078.48L1715.31,1078.48C1727.84,1078.48 1738.01,1088.65 1738.01,1101.18L1738.01,1244.99C1738.01,1257.52 1727.84,1267.69 1715.31,1267.69L887.53,1267.69C874.998,1267.69 864.824,1257.52 864.824,1244.99L864.824,1101.18C864.824,1088.65 874.998,1078.48 887.53,1078.48L981.624,1078.48ZM1498.43,1078.48L1094.4,1078.48C1047.68,1028.81 1019.04,961.968 1019.04,888.486C1019.04,735.399 1143.33,611.112 1296.42,611.112C1449.51,611.112 1573.79,735.399 1573.79,888.486C1573.79,961.968 1545.16,1028.81 1498.43,1078.48Z"/>
        <g id="stroke" transform="matrix(1,0,0,1,-30.2372,-1113.74)">
            <path d="M981.136,2174.05L917.767,2174.05C895.21,2174.05 876.897,2192.36 876.897,2214.92C876.897,2214.92 876.897,2358.72 876.897,2358.72C876.897,2381.28 895.21,2399.59 917.767,2399.59C917.767,2399.59 1745.54,2399.59 1745.54,2399.59C1768.1,2399.59 1786.41,2381.28 1786.41,2358.72L1786.41,2214.92C1786.41,2192.36 1768.1,2174.05 1745.54,2174.05L1672.17,2174.05C1697.98,2122.29 1712.51,2063.94 1712.51,2002.22C1712.51,1789.26 1539.61,1616.37 1326.65,1616.37C1113.7,1616.37 940.803,1789.26 940.803,2002.22C940.803,2063.94 955.328,2122.29 981.136,2174.05L981.136,2174.05ZM986.566,2180.71C987.729,2180.71 988.808,2180.11 989.413,2179.11C990.018,2178.12 990.062,2176.88 989.528,2175.85C962.653,2123.82 947.47,2064.78 947.47,2002.22C947.47,1792.94 1117.38,1623.04 1326.65,1623.04C1535.93,1623.04 1705.84,1792.94 1705.84,2002.22C1705.84,2064.78 1690.66,2123.82 1663.78,2175.85C1663.25,2176.88 1663.29,2178.12 1663.9,2179.11C1664.5,2180.11 1665.58,2180.71 1666.74,2180.71L1745.54,2180.71C1764.42,2180.71 1779.75,2196.04 1779.75,2214.92L1779.75,2358.72C1779.75,2377.6 1764.42,2392.92 1745.54,2392.92C1745.54,2392.92 917.767,2392.92 917.767,2392.92C898.89,2392.92 883.564,2377.6 883.564,2358.72C883.564,2358.72 883.564,2214.92 883.564,2214.92C883.564,2196.04 898.89,2180.71 917.767,2180.71C917.767,2180.71 986.566,2180.71 986.566,2180.71ZM1011.86,2203.71C1011.86,2203.71 917.767,2203.71 917.767,2203.71C911.581,2203.71 906.559,2208.73 906.559,2214.92C906.559,2214.92 906.559,2358.72 906.559,2358.72C906.559,2364.91 911.581,2369.93 917.767,2369.93C917.767,2369.93 1745.54,2369.93 1745.54,2369.93C1751.73,2369.93 1756.75,2364.91 1756.75,2358.72C1756.75,2358.72 1756.75,2214.92 1756.75,2214.92C1756.75,2208.73 1751.73,2203.71 1745.54,2203.71L1641.45,2203.71C1637.3,2203.71 1633.47,2201.47 1631.43,2197.86C1629.39,2194.24 1629.46,2189.81 1631.61,2186.26C1664.13,2132.54 1682.85,2069.55 1682.85,2002.22C1682.85,1805.63 1523.24,1646.03 1326.65,1646.03C1130.07,1646.03 970.465,1805.63 970.465,2002.22C970.465,2069.55 989.182,2132.54 1021.7,2186.26C1023.85,2189.81 1023.92,2194.24 1021.88,2197.86C1019.84,2201.47 1016.01,2203.71 1011.86,2203.71ZM1011.86,2210.38C1018.42,2210.38 1024.46,2206.84 1027.68,2201.13C1030.9,2195.42 1030.8,2188.41 1027.4,2182.81C995.496,2130.09 977.131,2068.28 977.131,2002.22C977.131,1809.31 1133.75,1652.7 1326.65,1652.7C1519.56,1652.7 1676.18,1809.31 1676.18,2002.22C1676.18,2068.28 1657.82,2130.09 1625.91,2182.81C1622.52,2188.41 1622.41,2195.42 1625.62,2201.13C1628.85,2206.84 1634.89,2210.38 1641.45,2210.38L1745.54,2210.38C1748.05,2210.38 1750.09,2212.41 1750.09,2214.92C1750.09,2214.92 1750.09,2358.72 1750.09,2358.72C1750.09,2361.23 1748.05,2363.26 1745.54,2363.26L917.767,2363.26C915.26,2363.26 913.225,2361.23 913.225,2358.72L913.225,2214.92C913.225,2212.41 915.26,2210.38 917.767,2210.38L1011.86,2210.38Z"/>
        </g>
        <g transform="matrix(0.216028,-0.753791,0.753791,0.216028,-225.526,2044.2)">
            <path d="M1752.04,1137.73L1721.33,1082.12L1739.86,1071.89C1745.65,1068.69 1751.24,1068.57 1756.64,1071.53C1759.58,1073.13 1761.8,1075.29 1763.3,1078C1765.11,1081.28 1765.99,1084.71 1765.94,1088.28C1765.89,1092.2 1764.19,1095.63 1760.82,1098.58L1785.73,1119.12L1779.84,1122.37L1755.78,1102.51L1743.39,1109.36L1757.42,1134.76L1752.04,1137.73ZM1740.88,1104.81L1754.54,1097.26C1757.08,1095.86 1758.81,1093.85 1759.71,1091.24C1760.71,1088.36 1760.16,1085.02 1758.06,1081.23C1755.28,1076.19 1750.81,1074.45 1744.64,1076C1742.82,1076.46 1740.96,1077.22 1739.07,1078.26L1729.22,1083.7L1740.88,1104.81Z" style="fill:white;fill-rule:nonzero;"/>
            <path d="M1797.47,1113.7L1774.36,1054.53L1806.11,1042.13L1808,1046.97L1781.97,1057.14L1790.11,1077.96L1808.78,1070.66L1810.67,1075.5L1792,1082.8L1801.17,1106.27L1828.66,1095.53L1830.69,1100.73L1797.47,1113.7Z" style="fill:white;fill-rule:nonzero;"/>
            <path d="M1844.36,1096.26L1829.77,1034.43L1839.3,1032.18L1875.1,1073.45L1863.99,1026.36L1869.97,1024.95L1884.56,1086.77L1879.43,1087.98L1837.16,1039.02L1850.34,1094.85L1844.36,1096.26Z" style="fill:white;fill-rule:nonzero;"/>
            <path d="M1902.26,1070.54C1900.79,1067.87 1899.65,1065.04 1898.84,1062.06C1898.03,1059.08 1897.51,1055.98 1897.26,1052.78C1897.02,1049.57 1897.04,1046.43 1897.34,1043.35C1897.63,1040.28 1898.26,1037.27 1899.23,1034.34C1900.2,1031.4 1901.48,1028.82 1903.07,1026.58C1904.66,1024.34 1906.74,1022.49 1909.29,1021.02C1911.84,1019.55 1914.71,1018.69 1917.9,1018.45C1921.09,1018.21 1924.01,1018.64 1926.66,1019.74C1929.31,1020.84 1931.56,1022.39 1933.42,1024.39C1935.28,1026.4 1936.9,1028.78 1938.28,1031.53C1940.86,1036.71 1942.41,1042.65 1942.92,1049.34C1943.86,1061.58 1941.41,1070.9 1935.6,1077.32C1932.45,1080.81 1928.23,1082.76 1922.93,1083.16C1919.87,1083.39 1917,1082.99 1914.31,1081.94C1911.62,1080.9 1909.3,1079.41 1907.37,1077.47C1905.43,1075.53 1903.73,1073.22 1902.26,1070.54ZM1904.53,1036.37C1903.87,1038.81 1903.45,1041.34 1903.29,1043.97C1903.13,1046.61 1903.18,1049.58 1903.43,1052.9C1903.69,1056.21 1904.26,1059.41 1905.14,1062.5C1906.03,1065.59 1907.23,1068.35 1908.73,1070.79C1910.23,1073.22 1912.17,1075.09 1914.53,1076.38C1916.89,1077.67 1919.43,1078.21 1922.14,1078.01C1924.86,1077.8 1927.15,1077.07 1929.02,1075.82C1930.88,1074.57 1932.33,1073.02 1933.39,1071.18C1934.44,1069.33 1935.26,1067.17 1935.85,1064.68C1936.9,1060.29 1937.22,1055.33 1936.8,1049.81C1936.1,1040.64 1933.89,1033.66 1930.16,1028.87C1928.84,1027.15 1927.17,1025.8 1925.15,1024.81C1923.13,1023.83 1920.88,1023.44 1918.4,1023.63C1915.91,1023.82 1913.72,1024.49 1911.83,1025.64C1909.93,1026.79 1908.4,1028.26 1907.25,1030.05C1906.1,1031.83 1905.19,1033.94 1904.53,1036.37Z" style="fill:white;fill-rule:nonzero;"/>
            <path d="M1960.3,1017.44L1966.67,1017.88L1978.52,1071.48L1997.57,1020L2003.95,1020.44L1980.96,1082.53L1974.58,1082.1L1960.3,1017.44Z" style="fill:white;fill-rule:nonzero;"/>
            <path d="M2007.83,1084.91L2038.47,1026.45L2047.24,1028.29L2051.7,1094.15L2045.44,1092.83L2044.29,1072.11L2023.62,1067.75L2014.08,1086.23L2007.83,1084.91ZM2026.07,1062.96L2043.94,1066.72L2041.76,1032.54L2026.07,1062.96Z" style="fill:white;fill-rule:nonzero;"/>
            <path d="M2079.22,1041.57L2080.98,1036.68L2120.52,1050.87L2118.76,1055.77L2101.88,1049.71L2082.18,1104.6L2076.39,1102.52L2096.1,1047.63L2079.22,1041.57Z" style="fill:white;fill-rule:nonzero;"/>
            <path d="M2109.4,1115.85L2136.42,1058.37L2141.98,1060.98L2114.96,1118.47L2109.4,1115.85Z" style="fill:white;fill-rule:nonzero;"/>
            <path d="M2137.99,1114.58C2138.36,1111.54 2139.08,1108.58 2140.15,1105.69C2141.23,1102.79 2142.6,1099.97 2144.27,1097.22C2145.94,1094.48 2147.79,1091.93 2149.82,1089.6C2151.85,1087.27 2154.11,1085.2 2156.61,1083.38C2159.1,1081.56 2161.65,1080.2 2164.25,1079.31C2166.85,1078.41 2169.61,1078.11 2172.54,1078.4C2175.47,1078.7 2178.3,1079.67 2181.04,1081.33C2183.77,1082.99 2185.89,1085.04 2187.41,1087.47C2188.92,1089.91 2189.85,1092.49 2190.2,1095.2C2190.54,1097.91 2190.47,1100.79 2189.99,1103.83C2189.07,1109.55 2186.87,1115.28 2183.39,1121.02C2177.03,1131.51 2169.61,1137.67 2161.15,1139.5C2156.56,1140.5 2151.99,1139.63 2147.45,1136.87C2144.83,1135.28 2142.72,1133.27 2141.14,1130.86C2139.57,1128.45 2138.55,1125.89 2138.11,1123.18C2137.66,1120.47 2137.62,1117.61 2137.99,1114.58ZM2159.73,1088.11C2157.77,1089.71 2155.97,1091.53 2154.3,1093.58C2152.64,1095.62 2150.94,1098.07 2149.22,1100.91C2147.49,1103.76 2146.09,1106.69 2145.02,1109.72C2143.94,1112.74 2143.3,1115.68 2143.11,1118.54C2142.91,1121.4 2143.4,1124.04 2144.57,1126.46C2145.73,1128.89 2147.48,1130.81 2149.81,1132.22C2152.14,1133.63 2154.43,1134.38 2156.67,1134.44C2158.91,1134.51 2161,1134.1 2162.93,1133.21C2164.86,1132.33 2166.78,1131.04 2168.71,1129.37C2172.12,1126.4 2175.27,1122.56 2178.14,1117.83C2182.91,1109.96 2185.18,1103 2184.94,1096.94C2184.87,1094.77 2184.29,1092.7 2183.22,1090.72C2182.16,1088.75 2180.56,1087.12 2178.43,1085.83C2176.3,1084.54 2174.13,1083.81 2171.91,1083.64C2169.7,1083.47 2167.6,1083.78 2165.63,1084.56C2163.65,1085.34 2161.68,1086.52 2159.73,1088.11Z" style="fill:white;fill-rule:nonzero;"/>
            <path d="M2179.44,1157.1L2220.38,1108.53L2227.87,1114.85L2216.08,1168.19L2247.26,1131.2L2251.96,1135.16L2211.02,1183.72L2206.99,1180.33L2221.11,1117.21L2184.13,1161.06L2179.44,1157.1Z" style="fill:white;fill-rule:nonzero;"/>
            <path d="M2231.83,1182.57L2237.12,1185.46C2237.14,1185.48 2237,1185.69 2236.72,1186.08C2236.43,1186.47 2236.09,1187.01 2235.7,1187.71C2235.31,1188.41 2234.92,1189.23 2234.53,1190.18C2234.14,1191.12 2233.87,1192.21 2233.73,1193.43C2233.59,1194.65 2233.6,1195.92 2233.75,1197.23C2234.07,1200.14 2235.53,1203.05 2238.14,1205.95C2240.74,1208.86 2243.48,1210.31 2246.36,1210.3C2249.23,1210.28 2251.84,1209.23 2254.18,1207.13C2256.53,1205.03 2257.97,1202.93 2258.51,1200.83C2259.05,1198.73 2258.78,1196.14 2257.71,1193.05C2257.39,1192.15 2256.93,1191 2256.35,1189.59L2254.75,1185.73C2251.9,1179.11 2251.02,1173.73 2252.11,1169.59C2252.88,1166.71 2254.5,1164.16 2256.98,1161.94C2259.91,1159.31 2263.68,1158.02 2268.29,1158.05C2270.44,1158.1 2272.63,1158.64 2274.88,1159.68C2277.12,1160.72 2279.07,1162.17 2280.74,1164.04C2282.42,1165.9 2283.64,1167.78 2284.41,1169.67C2285.18,1171.56 2285.59,1173.28 2285.62,1174.83C2285.66,1176.37 2285.5,1177.94 2285.15,1179.51C2284.8,1181.09 2284.38,1182.38 2283.88,1183.38L2282.37,1186.35C2281.88,1187.27 2281.61,1187.81 2281.54,1187.99L2276.37,1185.37C2276.44,1185.23 2276.68,1184.84 2277.1,1184.19C2277.51,1183.54 2277.84,1183 2278.09,1182.57C2278.35,1182.14 2278.66,1181.51 2279.03,1180.67C2279.41,1179.83 2279.68,1179.07 2279.84,1178.39C2280,1177.71 2280.11,1176.9 2280.19,1175.96C2280.27,1175.02 2280.21,1174.13 2280.03,1173.29C2279.56,1171.26 2278.56,1169.39 2277.02,1167.67C2274.75,1165.14 2272.15,1163.75 2269.22,1163.52C2266.29,1163.28 2263.57,1164.28 2261.08,1166.52C2258.35,1168.96 2257.06,1171.38 2257.21,1173.77C2257.29,1175.07 2257.43,1176.11 2257.63,1176.88C2257.83,1177.65 2258.12,1178.5 2258.49,1179.45C2258.87,1180.39 2259.14,1181.09 2259.3,1181.54C2259.46,1181.99 2259.83,1182.83 2260.41,1184.06L2261.92,1187.39C2264.72,1193.49 2265.47,1198.75 2264.16,1203.15C2263.27,1206.14 2261.42,1208.89 2258.61,1211.41C2256.57,1213.24 2253.87,1214.51 2250.49,1215.23C2246.24,1216.18 2242.2,1215.44 2238.39,1213.03C2236.97,1212.11 2235.53,1210.84 2234.08,1209.22C2232.63,1207.6 2231.43,1205.81 2230.46,1203.86C2229.49,1201.9 2228.89,1200.07 2228.65,1198.37C2228.4,1196.68 2228.33,1195.02 2228.41,1193.4C2228.5,1191.78 2228.74,1190.33 2229.13,1189.05C2229.85,1186.7 2230.6,1184.82 2231.39,1183.4L2231.83,1182.57Z" style="fill:white;fill-rule:nonzero;"/>
            <path d="M2321.5,1542.43L2377.63,1577.16L2375.16,1585.78L2309.16,1585.53L2310.92,1579.38L2331.67,1579.72L2337.49,1559.4L2319.74,1548.58L2321.5,1542.43ZM2342.1,1562.19L2337.07,1579.75L2371.32,1580.01L2342.1,1562.19Z" style="fill:white;fill-rule:nonzero;"/>
            <path d="M2304.64,1597.41L2362.45,1623.73L2358.39,1632.64L2303.85,1635.68L2347.89,1655.73L2345.34,1661.32L2287.53,1635L2289.71,1630.2L2354.3,1626.76L2302.1,1603L2304.64,1597.41Z" style="fill:white;fill-rule:nonzero;"/>
            <path d="M2279.01,1650.43L2332.01,1685.45L2323.75,1697.95C2316.09,1709.54 2306.21,1713.2 2294.1,1708.91C2290.19,1707.52 2286.49,1705.67 2282.99,1703.36C2279.49,1701.05 2276.67,1698.84 2274.51,1696.72C2272.36,1694.6 2270.53,1692.24 2269.02,1689.63C2267.51,1687.03 2266.51,1684.35 2266.01,1681.6C2264.95,1675.56 2266.53,1669.33 2270.75,1662.94L2279.01,1650.43ZM2279.96,1658.43L2275.09,1665.8C2270.1,1673.36 2269.97,1680.63 2274.69,1687.63C2277.07,1691.13 2280.62,1694.43 2285.33,1697.54C2293.7,1703.08 2300.72,1705.43 2306.4,1704.6C2308.6,1704.26 2310.84,1703.31 2313.12,1701.75C2315.41,1700.19 2317.51,1697.97 2319.41,1695.09L2324.29,1687.71L2279.96,1658.43Z" style="fill:white;fill-rule:nonzero;"/>
            <path d="M2230.14,1716.38L2274.61,1761.74L2259.49,1776.56C2254.76,1781.19 2249.41,1782.8 2243.41,1781.39C2240.15,1780.64 2237.44,1779.15 2235.27,1776.93C2232.64,1774.26 2230.88,1771.19 2229.97,1767.74C2228.97,1763.95 2229.7,1760.18 2232.15,1756.44L2202.66,1743.31L2207.47,1738.6L2235.96,1751.31L2246.07,1741.4L2225.76,1720.67L2230.14,1716.38ZM2249.71,1745.11L2238.56,1756.04C2236.48,1758.07 2235.36,1760.46 2235.19,1763.21C2235,1766.26 2236.42,1769.33 2239.45,1772.42C2243.48,1776.54 2248.26,1777.02 2253.78,1773.88C2255.41,1772.94 2257.01,1771.71 2258.55,1770.2L2266.58,1762.33L2249.71,1745.11Z" style="fill:white;fill-rule:nonzero;"/>
            <path d="M2192.82,1751.66L2230.99,1802.44L2203.74,1822.91L2200.62,1818.76L2222.95,1801.97L2209.52,1784.11L2193.49,1796.15L2190.37,1792L2206.4,1779.95L2191.26,1759.81L2167.67,1777.54L2164.32,1773.08L2192.82,1751.66Z" style="fill:white;fill-rule:nonzero;"/>
            <path d="M2152.28,1781.03L2183.21,1836.52L2164.03,1847.21C2158.35,1850.38 2152.9,1850.44 2147.68,1847.39C2144.95,1845.78 2142.92,1843.78 2141.59,1841.4C2140.26,1839.02 2139.37,1836.8 2138.92,1834.73C2138.46,1832.66 2138.36,1830.56 2138.61,1828.42C2138.86,1826.28 2139.71,1824.22 2141.17,1822.22C2142.62,1820.23 2144.64,1818.51 2147.23,1817.07L2161.04,1809.37L2146.92,1784.02L2152.28,1781.03ZM2163.57,1813.91L2153.42,1819.57C2149.51,1821.75 2146.85,1824.37 2145.46,1827.41C2144.07,1830.46 2144.37,1833.77 2146.36,1837.33C2148.34,1840.89 2151,1842.88 2154.33,1843.28C2157.66,1843.68 2161.27,1842.8 2165.16,1840.63L2175.31,1834.97L2163.57,1813.91Z" style="fill:white;fill-rule:nonzero;"/>
            <path d="M2109.52,1804.33L2115.85,1870.03L2107.49,1873.28L2067.74,1820.59L2073.7,1818.27L2086,1834.99L2105.69,1827.33L2103.56,1806.65L2109.52,1804.33ZM2106.26,1832.68L2089.24,1839.31L2109.76,1866.73L2106.26,1832.68Z" style="fill:white;fill-rule:nonzero;"/>
            <path d="M2056.35,1823.38L2073.43,1884.56L2067.52,1886.21L2050.43,1825.03L2056.35,1823.38Z" style="fill:white;fill-rule:nonzero;"/>
            <path d="M2034.64,1829.44L2045.33,1892.05L2024.46,1895.62C2017.94,1896.73 2012.62,1895 2008.5,1890.43C2006.25,1887.95 2004.87,1885.18 2004.35,1882.12C2003.72,1878.43 2004.01,1874.9 2005.24,1871.55C2006.57,1867.86 2009.32,1865.18 2013.47,1863.51L1996.71,1835.91L2003.34,1834.78L2019.52,1861.45L2033.47,1859.07L2028.59,1830.47L2034.64,1829.44ZM2034.35,1864.19L2018.96,1866.82C2016.1,1867.31 2013.81,1868.64 2012.1,1870.8C2010.21,1873.19 2009.62,1876.53 2010.35,1880.8C2011.32,1886.47 2014.97,1889.59 2021.3,1890.16C2023.18,1890.32 2025.18,1890.22 2027.31,1889.85L2038.4,1887.96L2034.35,1864.19Z" style="fill:white;fill-rule:nonzero;"/>
            <path d="M1988.61,1852.29L1983.01,1854.55C1982.98,1854.55 1982.91,1854.32 1982.79,1853.85C1982.68,1853.38 1982.47,1852.77 1982.17,1852.03C1981.88,1851.29 1981.49,1850.46 1981.01,1849.56C1980.52,1848.66 1979.86,1847.76 1979,1846.88C1978.14,1845.99 1977.16,1845.2 1976.05,1844.49C1973.6,1842.89 1970.42,1842.17 1966.52,1842.34C1962.62,1842.51 1959.77,1843.72 1957.95,1845.95C1956.14,1848.18 1955.3,1850.87 1955.44,1854.01C1955.58,1857.15 1956.28,1859.6 1957.57,1861.35C1958.85,1863.1 1961.02,1864.53 1964.09,1865.66C1964.99,1865.98 1966.17,1866.37 1967.63,1866.81L1971.63,1868.02C1978.56,1870.01 1983.28,1872.74 1985.78,1876.21C1987.52,1878.63 1988.47,1881.5 1988.61,1884.82C1988.78,1888.76 1987.39,1892.5 1984.45,1896.04C1983.05,1897.66 1981.24,1899.02 1979.01,1900.09C1976.79,1901.17 1974.43,1901.76 1971.92,1901.87C1969.42,1901.98 1967.19,1901.74 1965.24,1901.13C1963.29,1900.53 1961.71,1899.76 1960.49,1898.8C1959.27,1897.85 1958.16,1896.74 1957.16,1895.46C1956.17,1894.19 1955.44,1893.05 1954.98,1892.03L1953.64,1888.99C1953.24,1888.03 1952.99,1887.46 1952.9,1887.3L1958.2,1884.97C1958.26,1885.11 1958.41,1885.54 1958.65,1886.27C1958.89,1887 1959.1,1887.6 1959.27,1888.07C1959.44,1888.54 1959.74,1889.18 1960.14,1890C1960.56,1890.83 1960.97,1891.51 1961.4,1892.07C1961.83,1892.62 1962.38,1893.23 1963.06,1893.88C1963.74,1894.54 1964.46,1895.06 1965.22,1895.45C1967.09,1896.37 1969.17,1896.79 1971.47,1896.69C1974.87,1896.54 1977.59,1895.41 1979.63,1893.29C1981.67,1891.17 1982.62,1888.44 1982.47,1885.09C1982.31,1881.43 1981.26,1878.9 1979.32,1877.5C1978.26,1876.74 1977.37,1876.19 1976.65,1875.86C1975.93,1875.52 1975.08,1875.2 1974.11,1874.89C1973.14,1874.59 1972.43,1874.35 1971.98,1874.19C1971.53,1874.03 1970.65,1873.78 1969.33,1873.45L1965.8,1872.51C1959.3,1870.81 1954.76,1868.05 1952.19,1864.25C1950.44,1861.67 1949.48,1858.49 1949.32,1854.72C1949.2,1851.98 1949.93,1849.08 1951.52,1846.02C1953.48,1842.13 1956.61,1839.48 1960.89,1838.06C1962.5,1837.54 1964.39,1837.23 1966.57,1837.14C1968.74,1837.04 1970.88,1837.24 1973.01,1837.74C1975.14,1838.23 1976.93,1838.92 1978.4,1839.81C1979.87,1840.7 1981.2,1841.69 1982.39,1842.79C1983.59,1843.88 1984.56,1844.99 1985.3,1846.1C1986.66,1848.14 1987.64,1849.91 1988.24,1851.43L1988.61,1852.29Z" style="fill:white;fill-rule:nonzero;"/>
        </g>
        <g transform="matrix(1.83964,0,0,1.83964,263.495,417.023)">
            <rect x="367.237" y="385.947" width="8.059" height="51.599" style="fill:white;fill-rule:nonzero;"/>
            <path d="M399.357,437.546L399.357,385.947L407.484,385.947L407.484,408.903L424.514,385.947L433.011,385.947L417.87,406.076L433.956,437.546L425.087,437.546L412.711,412.922L407.484,419.87L407.484,437.546L399.357,437.546Z" style="fill:white;fill-rule:nonzero;"/>
            <path d="M464.6,417.622L464.6,385.947L472.626,385.947L472.626,437.546L466.219,437.546L445.581,397.97L445.581,437.546L437.556,437.546L437.556,385.947L447.942,385.947L464.6,417.622Z" style="fill:white;fill-rule:nonzero;"/>
            <path d="M487.034,404.526C486.798,405.877 486.635,407.143 486.545,408.324C486.455,409.505 486.41,410.714 486.41,411.951C486.41,413.189 486.455,414.409 486.545,415.613C486.635,416.816 486.798,418.088 487.034,419.427C487.27,420.767 487.568,422.004 487.928,423.14C488.287,424.275 488.776,425.37 489.395,426.426C490.013,427.482 490.704,428.385 491.468,429.134C493.199,430.769 495.38,431.586 498.01,431.586C505.317,431.586 508.97,425.024 508.97,411.9C508.97,401.206 506.497,394.757 501.551,392.555C500.472,392.078 499.275,391.84 497.96,391.84C496.645,391.84 495.431,392.078 494.318,392.555C493.205,393.032 492.261,393.662 491.485,394.445C490.71,395.228 490.013,396.176 489.395,397.289C488.776,398.402 488.287,399.548 487.928,400.729C487.568,401.91 487.27,403.175 487.034,404.526ZM478.688,417.077C478.463,415.351 478.351,413.637 478.351,411.934C478.351,410.231 478.452,408.517 478.654,406.791C478.857,405.066 479.194,403.312 479.666,401.529C480.138,399.747 480.722,398.061 481.419,396.472C482.116,394.882 482.999,393.378 484.067,391.959C485.134,390.54 486.332,389.319 487.658,388.297C490.513,386.095 493.986,384.994 498.078,384.994C503.698,384.994 508.194,387.332 511.566,392.01C515.208,397.096 517.029,403.737 517.029,411.934C517.029,420.29 515.276,426.875 511.769,431.688C508.487,436.184 503.923,438.432 498.078,438.432C492.525,438.432 487.973,436.173 484.421,431.654C481.408,427.84 479.497,422.981 478.688,417.077Z" style="fill:white;fill-rule:nonzero;"/>
            <path d="M518.91,385.947L527.239,385.947L534.725,420.585L535.029,420.585L542.38,385.947L550.001,385.947L557.217,420.585L557.622,420.585L565.108,385.947L573.201,385.947L561.365,437.546L553.845,437.546L546.359,401.546L546.022,401.546L538.401,437.546L530.746,437.546L518.91,385.947Z" style="fill:white;fill-rule:nonzero;"/>
            <path d="M604.411,415.749L613.955,415.749L609.2,399.094L604.411,415.749ZM589.911,437.546L604.479,385.947L613.314,385.947L627.882,437.546L620.092,437.546L615.877,422.595L602.489,422.595L598.274,437.546L589.911,437.546Z" style="fill:white;fill-rule:nonzero;"/>
            <path d="M675.851,402.296C674.39,395.325 671.333,391.84 666.679,391.84C661.756,391.84 658.305,394.666 656.326,400.32C655.225,403.476 654.674,407.177 654.674,411.423C654.674,421.641 656.821,427.999 661.115,430.496C662.374,431.223 663.711,431.586 665.128,431.586C666.544,431.586 667.741,431.444 668.719,431.16C669.697,430.877 670.518,430.513 671.181,430.071C671.844,429.628 672.423,429.054 672.917,428.351C673.412,427.647 673.794,426.943 674.064,426.239C674.334,425.535 674.547,424.695 674.705,423.719C674.952,422.243 675.098,420.46 675.143,418.371L665.33,418.371L665.33,411.492L683.068,411.492L683.068,437.546L676.526,437.546L676.526,433.459C675.087,435.23 673.513,436.491 671.805,437.24C669.961,438.035 667.837,438.432 665.431,438.432C663.026,438.432 660.823,437.938 658.822,436.95C656.821,435.963 655.09,434.606 653.629,432.88C652.167,431.155 650.897,429.145 649.818,426.852C647.682,422.288 646.615,417.123 646.615,411.355C646.615,405.838 647.637,400.888 649.683,396.506C651.954,391.669 655.09,388.332 659.092,386.492C661.272,385.493 663.369,384.994 665.381,384.994C667.393,384.994 669,385.136 670.203,385.42C671.406,385.703 672.631,386.214 673.878,386.952C675.126,387.69 676.256,388.649 677.268,389.83C679.493,392.396 681.314,396.131 682.73,401.035L675.851,402.296Z" style="fill:white;fill-rule:nonzero;"/>
            <path d="M688.811,422.288L688.811,385.947L696.871,385.947L696.871,420.347C696.871,426.091 698.703,429.656 702.367,431.041C703.311,431.405 704.368,431.586 705.537,431.586C706.706,431.586 707.763,431.427 708.707,431.109C709.651,430.791 710.415,430.394 711,429.917C711.584,429.44 712.09,428.833 712.517,428.095C712.944,427.357 713.259,426.682 713.462,426.069C713.664,425.456 713.832,424.729 713.967,423.889C714.102,422.799 714.17,421.618 714.17,420.347L714.17,385.947L722.398,385.947L722.398,422.288C722.398,427.488 720.7,431.609 717.306,434.651C714.496,437.172 710.584,438.432 705.571,438.432C697.95,438.432 692.891,435.514 690.396,429.679C689.339,427.272 688.811,424.808 688.811,422.288Z" style="fill:white;fill-rule:nonzero;"/>
            <path d="M747.411,413.671L747.411,437.546L739.385,437.546L739.385,413.671L724.548,385.947L733.045,385.947L743.398,405.463L753.75,385.947L762.248,385.947L747.411,413.671Z" style="fill:white;fill-rule:nonzero;"/>
        </g>
        <g transform="matrix(1.01522,-0.0125428,0.0125428,1.01522,-605.632,197.141)">
            <g transform="matrix(0.414423,0,0,0.414423,1235.94,7.99049)">
                <path d="M1673.72,460.838L1743.74,570.488L1761.13,676.417L1754.16,790.156L1756.26,959.095L1742.52,1040.47L1722.49,1069.27L1819.06,1171.27L1811.63,1186.3L2022.54,1302.53L2104.11,1541.69L2034.67,1915.62L2029.23,1912.8L1943.5,2111.05L1754.53,2230.91L1488.85,2186.59L1138.65,2047.03L1064.3,2062.98L931.692,1978.87L900.477,1802.54L972.637,1641.56L965.025,1638.9L1067.43,1397.14L1217.63,1254.01L1361.81,1196.25L1415.35,1120.5L1417.28,1046.05L1406.44,1036.25L1375.8,946.121L1353.43,952.661L1340.36,941.077L1302.02,848.724L1319.14,811.125L1332.26,797.468L1331.56,796.976L1330.24,672.211L1359.3,557.277L1425.36,485.055L1504.62,443.664L1604.56,431.774L1673.72,460.838Z" style="fill:white;"/>
            </g>
            <g transform="matrix(0.414417,-0.00224585,0.00224585,0.414417,1231.76,17.9418)">
                <path d="M1461.55,778.014L1525.83,770.751L1526.33,789.121L1550.5,806.374L1570.59,790.401L1570.59,771.185L1595.38,771.409L1590.1,736.877L1529.09,743.504L1461.55,778.014Z"/>
            </g>
            <g transform="matrix(-0.412828,-0.0363353,-0.0363353,0.412828,2596.22,72.8101)">
                <path d="M1466.42,777.473L1508.89,767.782L1511.88,791.783L1533.97,800.677L1552.29,789.405L1551.5,766.155L1595.38,771.409L1586.14,751.088L1506.87,737.877L1466.42,777.473Z"/>
            </g>
            <g transform="matrix(0.414423,0,0,0.414423,1235.94,7.99049)">
                <path d="M1625.15,784.469L1640.24,919.823L1563.77,920.988L1660.8,935.306L1636.6,781.968L1625.15,784.469Z"/>
            </g>
            <g transform="matrix(0.414423,0,0,0.414423,1235.94,7.99049)">
                <path d="M1372.51,870.373L1388.37,870.373L1385.72,783.448L1408.18,693.348L1393.65,625.973L1434.6,551.993L1503.3,515.002L1604.56,540.103L1681.64,541.424L1742.56,648.514L1754.07,828.813L1757.32,873.786L1762.17,667.122L1746.45,577.037L1673.72,460.838L1604.56,431.774L1504.62,443.664L1425.36,485.055L1359.3,557.277L1330.24,672.211L1331.56,796.976L1360.62,817.53L1372.51,870.373Z"/>
            </g>
            <g transform="matrix(0.411936,0.0453364,-0.0429831,0.390553,1283.15,-49.1107)">
                <path d="M1590.74,1072.38L1642.31,1070.69L1644,1081.68L1589.89,1079.99L1590.74,1072.38Z"/>
            </g>
            <g transform="matrix(0.414423,0,0,0.414423,1236.34,7.3266)">
                <path d="M1513.15,972.757L1588.93,987.549L1672.8,992.34L1639.77,1019.32L1579.6,1011.96"/>
            </g>
            <g transform="matrix(0.414423,0,0,0.414423,1235.94,7.99049)">
                <path d="M1340.29,784.77L1319.14,811.125L1302.02,848.724L1340.36,941.077L1353.43,952.661L1376.33,945.965L1371.39,932.58L1351.78,939.217L1318.38,843.93L1342.31,795.367L1340.29,784.77Z"/>
            </g>
            <g transform="matrix(0.414423,0,0,0.414423,1235.94,7.99049)">
                <path d="M1371.28,932.827L1406.44,1036.25L1552.61,1161.52L1657.98,1162.01L1742.52,1040.47L1756.26,959.095L1757.37,800.733L1754.15,789.366L1747.81,952.661L1735.13,1028.71L1646.35,1140.88L1557.93,1144.23L1417.01,1028.71L1371.28,932.827Z"/>
            </g>
            <g transform="matrix(0.414423,0,0,0.392911,1235.94,30.3701)">
                <path d="M1423.94,1108.5L1311.35,1280.09L1390.61,1258.62L1445.34,1389.61L1455.84,1379.9L1418.68,1238.8L1359.41,1244.55L1423.94,1108.5Z"/>
            </g>
            <g transform="matrix(0.414423,0,0,0.392911,1235.94,30.3701)">
                <path d="M1425.87,1534.07L1445.12,1386.05L1563.77,1276.18L1618.29,1256.74L1710.92,1122.99L1721.56,1066.72L1725.18,1132.59L1625.15,1268.41L1563.77,1291.73L1455.65,1396.59L1449.68,1536.77L1425.87,1534.07Z"/>
            </g>
            <g transform="matrix(0.414423,0,0,0.392911,1235.94,30.3701)">
                <path d="M1417.42,1040.32L1404.73,1249.47L1418.72,1254.15L1427.79,1050.69L1417.42,1040.32Z"/>
            </g>
            <g transform="matrix(0.414423,0,0,0.392911,1235.94,30.3701)">
                <path d="M1618.26,1266.16L1754.06,1321.9L1816.06,1183.06L1721.6,1069.86L1719.94,1087.17L1802.78,1184.51L1744.52,1289.6L1626.15,1256.55L1618.26,1266.16Z"/>
            </g>
            <g transform="matrix(0.414423,0,0,0.392911,1235.94,30.3701)">
                <path d="M1810.05,1193.37L2022.54,1316.89L2104.11,1569.14L2034.67,1963.54L2007.34,1941.2L2079.16,1577.63L2007.86,1332.52L1797.1,1213.27L1810.05,1193.37Z"/>
            </g>
            <g transform="matrix(0.414423,0,0,0.377719,1230.93,68.4469)">
                <path d="M2046.77,1941.71L1884.92,1849.95L1706.95,1802.27L1815.96,1489.25L1736.89,1781.46L1888.6,1819.68L2045.9,1896.68L2046.77,1941.71Z"/>
            </g>
            <g transform="matrix(0.414423,0,0,0.392911,1235.94,30.3701)">
                <path d="M1364.19,1203.78L1217.63,1265.7L1067.43,1416.68L965.025,1671.67L1206.25,1760.66L1193.98,1719.67L1000.12,1654.48L1084.94,1426L1226.76,1278.09L1361.06,1214.23L1364.19,1203.78Z"/>
            </g>
            <g transform="matrix(0.414423,0,0,0.377719,1235.94,53.5929)">
                <path d="M977.893,1667.49L900.477,1856.97L931.692,2050.43L1064.3,2142.72L1655.53,2003.59L1770.91,2019.53L1872.15,2099.76L1776.29,2001.66L1660.5,1983.45L1068.71,2111.1L955.283,2023L927.951,1859.64L993.407,1677.83L977.893,1667.49Z"/>
            </g>
            <g transform="matrix(0.414423,0,0,0.377719,1243.53,57.5531)">
                <path d="M2016.35,1953.64L1925.17,2184.97L1736.2,2316.48L1470.52,2267.86L1108.12,2109.4L1133.48,2103.79L1474.14,2239.23L1728.32,2283.06L1908.94,2159.67L1989.13,1940.04L2016.35,1953.64Z"/>
            </g>
            <g transform="matrix(0.414423,0,0,0.377719,1235.94,53.5929)">
                <path d="M1711.57,1839.19L1649.77,1995.6L1676.56,2000.31L1726.28,1841.5L1711.57,1839.19Z"/>
            </g>
            <g transform="matrix(0.414326,-0.0023147,0.00475882,0.377781,1226.49,62.91)">
                <path d="M1074.64,1793.91L1293.54,1784.19L1698.67,1885.3L1686.17,1913.24L1293.42,1811.13L1074.64,1793.91Z"/>
            </g>
            <g transform="matrix(0.649282,0,0,0.629318,954,-387.323)">
                <path d="M1203.09,1624.53L1205.38,1788.37L1192.23,1788.37L1203.09,1624.53Z"/>
            </g>
            <g transform="matrix(0.649282,0,0,0.629318,945.504,-205.249)">
                <path d="M1197.25,1694.24L1209.38,1699.16L1205.38,1788.37L1192.23,1788.37L1197.25,1694.24Z"/>
            </g>
        </g>
        <g id="screws">
            <g transform="matrix(1,0,0,1,-38.0011,-1118.47)">
                <circle cx="925.414" cy="2220.14" r="11.668" style="fill:white;"/>
            </g>
            <g transform="matrix(1,0,0,1,789.675,-1118.47)">
                <circle cx="925.414" cy="2220.14" r="11.668" style="fill:white;"/>
            </g>
            <g transform="matrix(1,0,0,1,-38.0011,-975.074)">
                <circle cx="925.414" cy="2220.14" r="11.668" style="fill:white;"/>
            </g>
            <g transform="matrix(1,0,0,1,789.675,-975.074)">
                <circle cx="925.414" cy="2220.14" r="11.668" style="fill:white;"/>
            </g>
            <g transform="matrix(0.807875,0.589353,-0.589353,0.807875,1451.72,-1228.92)">
                <rect x="903.204" y="2212.63" width="28.894" height="5.558"/>
            </g>
            <g transform="matrix(-0.291605,-0.956539,0.956539,-0.291605,-1101.28,2810.67)">
                <rect x="903.204" y="2356.02" width="28.894" height="5.558"/>
            </g>
            <g transform="matrix(0.432278,-0.90174,0.90174,0.432278,-1037.1,1717.83)">
                <rect x="1730.88" y="2212.63" width="28.894" height="5.558"/>
            </g>
            <g transform="matrix(0.902778,-0.430108,0.430108,0.902778,-875.091,-133.729)">
                <rect x="1730.88" y="2356.02" width="28.894" height="5.558"/>
            </g>
        </g>
    </g>
</svg>
