<?xml version="1.0" encoding="UTF-8" standalone="no"?>
<!DOCTYPE svg PUBLIC "-//W3C//DTD SVG 1.1//EN" "http://www.w3.org/Graphics/SVG/1.1/DTD/svg11.dtd">
<svg width="100%" height="100%" viewBox="0 0 910 226" version="1.1" xmlns="http://www.w3.org/2000/svg" xmlns:xlink="http://www.w3.org/1999/xlink" xml:space="preserve" xmlns:serif="http://www.serif.com/" style="fill-rule:evenodd;clip-rule:evenodd;stroke-linejoin:round;stroke-miterlimit:2;">
    <g transform="matrix(1,0,0,1,-877.105,-2174.26)">
        <path d="M1745.54,2174.26L917.767,2174.26C895.325,2174.26 877.105,2192.47 877.105,2214.92C877.105,2214.92 877.105,2358.72 877.105,2358.72C877.105,2381.16 895.325,2399.38 917.767,2399.38C917.767,2399.38 1745.54,2399.38 1745.54,2399.38C1767.99,2399.38 1786.2,2381.16 1786.2,2358.72L1786.2,2214.92C1786.2,2192.47 1767.99,2174.26 1745.54,2174.26ZM1745.54,2180.51C1764.54,2180.51 1779.95,2195.93 1779.95,2214.92L1779.95,2358.72C1779.95,2377.71 1764.54,2393.13 1745.54,2393.13C1745.54,2393.13 917.767,2393.13 917.767,2393.13C898.775,2393.13 883.355,2377.71 883.355,2358.72C883.355,2358.72 883.355,2214.92 883.355,2214.92C883.355,2195.93 898.775,2180.51 917.767,2180.51L1745.54,2180.51ZM917.767,2203.92C911.696,2203.92 906.767,2208.85 906.767,2214.92L906.767,2358.72C906.767,2364.79 911.696,2369.72 917.767,2369.72L1745.54,2369.72C1751.61,2369.72 1756.54,2364.79 1756.54,2358.72C1756.54,2358.72 1756.54,2214.92 1756.54,2214.92C1756.54,2208.85 1751.61,2203.92 1745.54,2203.92L917.767,2203.92ZM917.767,2210.17C917.767,2210.17 1745.54,2210.17 1745.54,2210.17C1748.16,2210.17 1750.29,2212.3 1750.29,2214.92C1750.29,2214.92 1750.29,2358.72 1750.29,2358.72C1750.29,2361.34 1748.16,2363.47 1745.54,2363.47L917.767,2363.47C915.145,2363.47 913.017,2361.34 913.017,2358.72L913.017,2214.92C913.017,2212.3 915.145,2210.17 917.767,2210.17Z"/>
    </g>
    <g transform="matrix(1,0,0,1,-1391.18,-1857.73)">
        <g transform="matrix(0.745731,0,0,0.945029,1224.04,-423.018)">
            <path d="M1419.12,2456.44C1419.12,2443.18 1405.48,2432.41 1388.67,2432.41L278.655,2432.41C261.85,2432.41 248.207,2443.18 248.207,2456.44L248.207,2608.61C248.207,2621.87 261.85,2632.63 278.655,2632.63L1388.67,2632.63C1405.48,2632.63 1419.12,2621.87 1419.12,2608.61L1419.12,2456.44Z"/>
        </g>
        <g transform="matrix(1.83964,0,0,1.83964,807.803,1214.23)">
            <g transform="matrix(1,0,0,1.01,0,-4.37546)">
                <g transform="matrix(69.0618,0,0,69.0618,363.898,437.546)">
                    <rect x="0.048" y="-0.74" width="0.117" height="0.74" style="fill:white;fill-rule:nonzero;"/>
                </g>
                <g transform="matrix(69.0618,0,0,69.0618,395.21,437.546)">
                    <path d="M0.06,-0L0.06,-0.74L0.178,-0.74L0.178,-0.411L0.424,-0.74L0.547,-0.74L0.328,-0.451L0.561,-0L0.433,-0L0.253,-0.353L0.178,-0.253L0.178,-0L0.06,-0Z" style="fill:white;fill-rule:nonzero;"/>
                </g>
                <g transform="matrix(69.0618,0,0,69.0618,433.678,437.546)">
                    <path d="M0.448,-0.286L0.448,-0.74L0.564,-0.74L0.564,-0L0.471,-0L0.172,-0.567L0.172,-0L0.056,-0L0.056,-0.74L0.207,-0.74L0.448,-0.286Z" style="fill:white;fill-rule:nonzero;"/>
                </g>
                <g transform="matrix(69.0618,0,0,69.0618,476.226,437.546)">
                    <path d="M0.156,-0.473C0.153,-0.454 0.151,-0.436 0.149,-0.419C0.148,-0.402 0.147,-0.385 0.147,-0.367C0.147,-0.349 0.148,-0.332 0.149,-0.314C0.151,-0.297 0.153,-0.279 0.156,-0.26C0.16,-0.241 0.164,-0.223 0.169,-0.207C0.175,-0.19 0.182,-0.175 0.191,-0.159C0.2,-0.144 0.21,-0.131 0.221,-0.121C0.246,-0.097 0.277,-0.085 0.315,-0.085C0.421,-0.085 0.474,-0.18 0.474,-0.368C0.474,-0.521 0.438,-0.613 0.367,-0.645C0.351,-0.652 0.334,-0.655 0.315,-0.655C0.296,-0.655 0.278,-0.652 0.262,-0.645C0.246,-0.638 0.232,-0.629 0.221,-0.618C0.21,-0.607 0.2,-0.593 0.191,-0.577C0.182,-0.561 0.175,-0.545 0.169,-0.528C0.164,-0.511 0.16,-0.493 0.156,-0.473ZM0.036,-0.293C0.032,-0.318 0.031,-0.343 0.031,-0.367C0.031,-0.392 0.032,-0.416 0.035,-0.441C0.038,-0.466 0.043,-0.491 0.05,-0.516C0.057,-0.542 0.065,-0.566 0.075,-0.589C0.085,-0.612 0.098,-0.633 0.114,-0.654C0.129,-0.674 0.146,-0.691 0.166,-0.706C0.207,-0.738 0.257,-0.753 0.316,-0.753C0.398,-0.753 0.463,-0.72 0.512,-0.653C0.564,-0.58 0.591,-0.485 0.591,-0.367C0.591,-0.247 0.565,-0.153 0.515,-0.084C0.467,-0.02 0.401,0.013 0.316,0.013C0.236,0.013 0.17,-0.02 0.119,-0.084C0.075,-0.139 0.047,-0.209 0.036,-0.293Z" style="fill:white;fill-rule:nonzero;"/>
                </g>
                <g transform="matrix(69.0618,0,0,69.0618,518.842,437.546)">
                    <path d="M0.001,-0.74L0.122,-0.74L0.23,-0.243L0.234,-0.243L0.341,-0.74L0.451,-0.74L0.556,-0.243L0.562,-0.243L0.67,-0.74L0.787,-0.74L0.616,-0L0.507,-0L0.398,-0.516L0.394,-0.516L0.283,-0L0.172,-0L0.001,-0.74Z" style="fill:white;fill-rule:nonzero;"/>
                </g>
                <g transform="matrix(69.0618,0,0,69.0618,589.844,437.546)">
                    <path d="M0.211,-0.313L0.349,-0.313L0.28,-0.551L0.211,-0.313ZM0.001,-0L0.212,-0.74L0.34,-0.74L0.551,-0L0.438,-0L0.377,-0.214L0.183,-0.214L0.122,-0L0.001,-0Z" style="fill:white;fill-rule:nonzero;"/>
                </g>
            </g>
            <g transform="matrix(1,0,0,1.01,0,-4.37546)">
                <g transform="matrix(69.0618,0,0,69.0618,644.524,437.546)">
                    <path d="M0.454,-0.505C0.432,-0.605 0.388,-0.655 0.321,-0.655C0.25,-0.655 0.2,-0.615 0.171,-0.534C0.155,-0.488 0.147,-0.435 0.147,-0.375C0.147,-0.228 0.178,-0.137 0.24,-0.101C0.258,-0.091 0.278,-0.085 0.298,-0.085C0.319,-0.085 0.336,-0.087 0.35,-0.092C0.365,-0.096 0.376,-0.101 0.386,-0.107C0.396,-0.114 0.404,-0.122 0.411,-0.132C0.418,-0.142 0.424,-0.152 0.428,-0.162C0.432,-0.172 0.435,-0.184 0.437,-0.198C0.441,-0.219 0.443,-0.245 0.443,-0.275L0.301,-0.275L0.301,-0.374L0.558,-0.374L0.558,-0L0.463,-0L0.463,-0.059C0.443,-0.033 0.42,-0.015 0.395,-0.004C0.368,0.007 0.338,0.013 0.303,0.013C0.268,0.013 0.236,0.006 0.207,-0.009C0.178,-0.023 0.153,-0.042 0.132,-0.067C0.111,-0.092 0.092,-0.12 0.077,-0.153C0.046,-0.219 0.03,-0.293 0.03,-0.375C0.03,-0.455 0.045,-0.526 0.075,-0.588C0.108,-0.658 0.153,-0.706 0.211,-0.732C0.243,-0.746 0.273,-0.753 0.302,-0.753C0.331,-0.753 0.354,-0.751 0.372,-0.747C0.389,-0.743 0.407,-0.736 0.425,-0.725C0.443,-0.715 0.459,-0.701 0.474,-0.684C0.506,-0.647 0.533,-0.594 0.553,-0.523L0.454,-0.505Z" style="fill:white;fill-rule:nonzero;"/>
                </g>
            </g>
            <g transform="matrix(1,0,0,1.01,0,-4.37546)">
                <g transform="matrix(69.0618,0,0,69.0618,684.663,437.546)">
                    <path d="M0.06,-0.219L0.06,-0.74L0.177,-0.74L0.177,-0.247C0.177,-0.164 0.203,-0.113 0.256,-0.093C0.27,-0.088 0.285,-0.085 0.302,-0.085C0.319,-0.085 0.334,-0.088 0.348,-0.092C0.362,-0.097 0.373,-0.103 0.381,-0.109C0.39,-0.116 0.397,-0.125 0.403,-0.135C0.41,-0.146 0.414,-0.156 0.417,-0.165C0.42,-0.173 0.422,-0.184 0.424,-0.196C0.426,-0.211 0.427,-0.228 0.427,-0.247L0.427,-0.74L0.546,-0.74L0.546,-0.219C0.546,-0.144 0.522,-0.085 0.473,-0.042C0.432,-0.005 0.375,0.013 0.303,0.013C0.192,0.013 0.119,-0.029 0.083,-0.113C0.068,-0.147 0.06,-0.183 0.06,-0.219Z" style="fill:white;fill-rule:nonzero;"/>
                </g>
            </g>
            <g transform="matrix(1,0,0,1.01,0,-4.37546)">
                <g transform="matrix(69.0618,0,0,69.0618,724.48,437.546)">
                    <path d="M0.332,-0.342L0.332,-0L0.216,-0L0.216,-0.342L0.001,-0.74L0.124,-0.74L0.274,-0.46L0.424,-0.74L0.547,-0.74L0.332,-0.342Z" style="fill:white;fill-rule:nonzero;"/>
                </g>
            </g>
        </g>
        <g transform="matrix(1,0,0,1,506.307,-321.264)">
            <circle cx="925.414" cy="2220.14" r="11.668" style="fill:white;"/>
        </g>
        <g transform="matrix(1,0,0,1,1333.98,-321.264)">
            <circle cx="925.414" cy="2220.14" r="11.668" style="fill:white;"/>
        </g>
        <g transform="matrix(1,0,0,1,506.307,-177.869)">
            <circle cx="925.414" cy="2220.14" r="11.668" style="fill:white;"/>
        </g>
        <g transform="matrix(1,0,0,1,1333.98,-177.869)">
            <circle cx="925.414" cy="2220.14" r="11.668" style="fill:white;"/>
        </g>
        <g transform="matrix(0.807875,0.589353,-0.589353,0.807875,1996.03,-431.716)">
            <rect x="903.899" y="2213.32" width="27.502" height="4.167"/>
        </g>
        <g transform="matrix(-0.291605,-0.956539,0.956539,-0.291605,-556.972,3607.88)">
            <rect x="903.899" y="2356.72" width="27.502" height="4.167"/>
        </g>
        <g transform="matrix(0.432278,-0.90174,0.90174,0.432278,-492.789,2515.04)">
            <rect x="1731.58" y="2213.32" width="27.502" height="4.167"/>
        </g>
        <g transform="matrix(0.902778,-0.430108,0.430108,0.902778,-330.783,663.477)">
            <rect x="1731.58" y="2356.72" width="27.502" height="4.167"/>
        </g>
    </g>
</svg>
